<svg xmlns="http://www.w3.org/2000/svg" width="900" height="216" viewBox="0 0 900 216"><rect x="12" y="8" width="276" height="200" rx="12" fill="#FDECEA" stroke="#D9412B" stroke-width="2"/><g transform="translate(150,80)"><rect x="-34" y="-14" width="68" height="44" rx="6" fill="#8D6E63" stroke="#2B3A33" stroke-width="2.2" stroke-linejoin="round" stroke-linecap="round"/><path d="M-12,-14 v-10 h24 v10" fill="none" stroke="#2B3A33" stroke-width="2.2" stroke-linejoin="round" stroke-linecap="round"/><circle cx="30" cy="-24" r="16" fill="#F4C430" stroke="#2B3A33" stroke-width="2.2" stroke-linejoin="round" stroke-linecap="round"/><text x="30" y="-19" font-family="Arial, 'Liberation Sans', 'DejaVu Sans', sans-serif" font-size="12" text-anchor="middle" fill="#2B3A33" font-weight="bold">lei</text></g><circle cx="242" cy="44" r="22" fill="#D9412B"/><path d="M232,34 l20,20 M252,34 l-20,20" stroke="#fff" stroke-width="5"/><text x="150" y="160" font-family="Arial, 'Liberation Sans', 'DejaVu Sans', sans-serif" font-size="15" text-anchor="middle" fill="#2B3A33" font-weight="bold">Bani pentru un loc de muncă</text><text x="150" y="180" font-family="Arial, 'Liberation Sans', 'DejaVu Sans', sans-serif" font-size="12.5" text-anchor="middle" fill="#555" font-style="italic">money for a job</text><rect x="312" y="8" width="276" height="200" rx="12" fill="#FDECEA" stroke="#D9412B" stroke-width="2"/><g transform="translate(450,80)"><rect x="-22" y="-40" width="44" height="80" rx="8" fill="#455A64" stroke="#2B3A33" stroke-width="2.2" stroke-linejoin="round" stroke-linecap="round"/><rect x="-16" y="-30" width="32" height="56" fill="#E3F2FD"/><path d="M-12,-22 h26 v18 h-18 l-6,6z" fill="#fff" stroke="#2B3A33" stroke-width="2.2" stroke-linejoin="round" stroke-linecap="round"/><text x="1" y="-9" font-family="Arial, 'Liberation Sans', 'DejaVu Sans', sans-serif" font-size="10" text-anchor="middle" fill="#D9412B" font-weight="bold">COD?</text></g><circle cx="542" cy="44" r="22" fill="#D9412B"/><path d="M532,34 l20,20 M552,34 l-20,20" stroke="#fff" stroke-width="5"/><text x="450" y="160" font-family="Arial, 'Liberation Sans', 'DejaVu Sans', sans-serif" font-size="15" text-anchor="middle" fill="#2B3A33" font-weight="bold">Cod, PIN, parolă prin SMS / telefon</text><text x="450" y="180" font-family="Arial, 'Liberation Sans', 'DejaVu Sans', sans-serif" font-size="12.5" text-anchor="middle" fill="#555" font-style="italic">a code or PIN by phone or SMS</text><rect x="612" y="8" width="276" height="200" rx="12" fill="#FDECEA" stroke="#D9412B" stroke-width="2"/><g transform="translate(750,80)"><path d="M-28,-40 h44 l14,14 v66 h-58z" fill="#fff" stroke="#2B3A33" stroke-width="2.2" stroke-linejoin="round" stroke-linecap="round"/><path d="M-18,-22 h30 M-18,-10 h30 M-18,2 h30 M-18,14 h20" stroke="#999" stroke-width="2"/><path d="M8,34 l30,-40 l6,6 l-30,40 l-9,3z" fill="#F4C430" stroke="#2B3A33" stroke-width="2.2" stroke-linejoin="round" stroke-linecap="round"/></g><circle cx="842" cy="44" r="22" fill="#D9412B"/><path d="M832,34 l20,20 M852,34 l-20,20" stroke="#fff" stroke-width="5"/><text x="750" y="160" font-family="Arial, 'Liberation Sans', 'DejaVu Sans', sans-serif" font-size="15" text-anchor="middle" fill="#2B3A33" font-weight="bold">Semnezi fără să înțelegi</text><text x="750" y="180" font-family="Arial, 'Liberation Sans', 'DejaVu Sans', sans-serif" font-size="12.5" text-anchor="middle" fill="#555" font-style="italic">signing what you do not understand</text></svg>