<svg xmlns="http://www.w3.org/2000/svg" width="660" height="170" viewBox="0 0 660 170"><circle cx="110" cy="62" r="56" fill="#F6F8F4"/><g transform="translate(110,60)"><rect x="-44" y="-26" width="88" height="44" rx="10" fill="#1565C0" stroke="#2B3A33" stroke-width="2.2" stroke-linejoin="round" stroke-linecap="round"/><rect x="-36" y="-18" width="20" height="16" fill="#E3F2FD" stroke="#2B3A33" stroke-width="2.2" stroke-linejoin="round" stroke-linecap="round"/><rect x="-10" y="-18" width="20" height="16" fill="#E3F2FD" stroke="#2B3A33" stroke-width="2.2" stroke-linejoin="round" stroke-linecap="round"/><rect x="16" y="-18" width="20" height="16" fill="#E3F2FD" stroke="#2B3A33" stroke-width="2.2" stroke-linejoin="round" stroke-linecap="round"/><circle cx="-26" cy="24" r="7" fill="#2B3A33"/><circle cx="26" cy="24" r="7" fill="#2B3A33"/><path d="M-50,34 h100" stroke="#2B3A33" stroke-width="2.2" stroke-linejoin="round" stroke-linecap="round"/></g><text x="110" y="142" font-family="Arial, 'Liberation Sans', 'DejaVu Sans', sans-serif" font-size="16" text-anchor="middle" fill="#2B3A33" font-weight="bold">trenul · gara</text><text x="110" y="160" font-family="Arial, 'Liberation Sans', 'DejaVu Sans', sans-serif" font-size="13" text-anchor="middle" fill="#555" font-style="italic">the train · the station</text><circle cx="330" cy="62" r="56" fill="#F6F8F4"/><g transform="translate(330,60)"><rect x="-46" y="-28" width="92" height="50" rx="8" fill="#F4C430" stroke="#2B3A33" stroke-width="2.2" stroke-linejoin="round" stroke-linecap="round"/><rect x="-38" y="-20" width="56" height="18" fill="#E3F2FD" stroke="#2B3A33" stroke-width="2.2" stroke-linejoin="round" stroke-linecap="round"/><rect x="24" y="-20" width="16" height="30" fill="#E3F2FD" stroke="#2B3A33" stroke-width="2.2" stroke-linejoin="round" stroke-linecap="round"/><circle cx="-26" cy="24" r="8" fill="#2B3A33"/><circle cx="26" cy="24" r="8" fill="#2B3A33"/></g><text x="330" y="142" font-family="Arial, 'Liberation Sans', 'DejaVu Sans', sans-serif" font-size="16" text-anchor="middle" fill="#2B3A33" font-weight="bold">autocarul · autogara</text><text x="330" y="160" font-family="Arial, 'Liberation Sans', 'DejaVu Sans', sans-serif" font-size="13" text-anchor="middle" fill="#555" font-style="italic">the coach · the bus station</text><circle cx="550" cy="62" r="56" fill="#F6F8F4"/><g transform="translate(550,60)"><path d="M-46,4 q0,-10 12,-10 h60 q18,0 22,10 q-4,8 -22,8 h-60 q-12,0 -12,-8z" fill="#fff" stroke="#2B3A33" stroke-width="2.2" stroke-linejoin="round" stroke-linecap="round"/><path d="M-4,-4 l-18,-30 h12 l26,30z M-4,10 l-14,26 h12 l22,-26z M-40,-4 l-8,-18 h8 l12,18z" fill="#90CAF9" stroke="#2B3A33" stroke-width="2.2" stroke-linejoin="round" stroke-linecap="round"/></g><text x="550" y="142" font-family="Arial, 'Liberation Sans', 'DejaVu Sans', sans-serif" font-size="16" text-anchor="middle" fill="#2B3A33" font-weight="bold">avionul · aeroportul</text><text x="550" y="160" font-family="Arial, 'Liberation Sans', 'DejaVu Sans', sans-serif" font-size="13" text-anchor="middle" fill="#555" font-style="italic">the plane · the airport</text></svg>