<svg xmlns="http://www.w3.org/2000/svg" width="920" height="190" viewBox="0 0 920 190"><rect x="10" y="8" width="210" height="178" rx="14" fill="#FAFAF7" stroke="#D8DED9" stroke-width="2"/><circle cx="99" cy="70" r="26" fill="none" stroke="#C9A227" stroke-width="8"/><circle cx="131" cy="70" r="26" fill="none" stroke="#C9A227" stroke-width="8"/><text x="115" y="150" font-family="Arial, 'Liberation Sans', 'DejaVu Sans', sans-serif" font-size="19" text-anchor="middle" fill="#2B3A33" font-weight="bold">căsătorit(ă)</text><text x="115" y="174" font-family="Arial, 'Liberation Sans', 'DejaVu Sans', sans-serif" font-size="15" text-anchor="middle" fill="#555" font-style="italic">married</text><rect x="240" y="8" width="210" height="178" rx="14" fill="#FAFAF7" stroke="#D8DED9" stroke-width="2"/><circle cx="345" cy="50" r="18" fill="#2E7D55"/><path d="M313,112 q0,-42 32,-42 q32,0 32,42 z" fill="#2E7D55"/><text x="345" y="150" font-family="Arial, 'Liberation Sans', 'DejaVu Sans', sans-serif" font-size="19" text-anchor="middle" fill="#2B3A33" font-weight="bold">necăsătorit(ă)</text><text x="345" y="174" font-family="Arial, 'Liberation Sans', 'DejaVu Sans', sans-serif" font-size="15" text-anchor="middle" fill="#555" font-style="italic">not married, single</text><rect x="470" y="8" width="210" height="178" rx="14" fill="#FAFAF7" stroke="#D8DED9" stroke-width="2"/><circle cx="541" cy="70" r="26" fill="none" stroke="#C9A227" stroke-width="8"/><circle cx="609" cy="70" r="26" fill="none" stroke="#C9A227" stroke-width="8"/><path d="M575,36 l-8,14 l10,8 l-10,10 l10,10 l-8,14" fill="none" stroke="#C0392B" stroke-width="4"/><text x="575" y="150" font-family="Arial, 'Liberation Sans', 'DejaVu Sans', sans-serif" font-size="19" text-anchor="middle" fill="#2B3A33" font-weight="bold">divorțat(ă)</text><text x="575" y="174" font-family="Arial, 'Liberation Sans', 'DejaVu Sans', sans-serif" font-size="15" text-anchor="middle" fill="#555" font-style="italic">divorced</text><rect x="700" y="8" width="210" height="178" rx="14" fill="#FAFAF7" stroke="#D8DED9" stroke-width="2"/><circle cx="805" cy="70" r="26" fill="none" stroke="#C9A227" stroke-width="8"/><path d="M823,34 l14,-14 l14,14 l-8,40 l-6,-8 l-6,8 z" fill="#333"/><text x="805" y="150" font-family="Arial, 'Liberation Sans', 'DejaVu Sans', sans-serif" font-size="19" text-anchor="middle" fill="#2B3A33" font-weight="bold">văduv(ă)</text><text x="805" y="174" font-family="Arial, 'Liberation Sans', 'DejaVu Sans', sans-serif" font-size="15" text-anchor="middle" fill="#555" font-style="italic">widowed</text></svg>