<svg xmlns="http://www.w3.org/2000/svg" width="896" height="148" viewBox="0 0 896 148"><g transform="translate(56,58)"><circle r="38" fill="#FFD54F" stroke="#2B3A33" stroke-width="2.4"/><circle cx="-12" cy="-8" r="3.5" fill="#2B3A33"/><circle cx="12" cy="-8" r="3.5" fill="#2B3A33"/><path d="M-14,10 q14,14 28,0" stroke="#2B3A33" stroke-width="2.4" stroke-linecap="round" stroke-linejoin="round" fill="none"/><path d="M18,22 l-4,16 l8,-4 l8,4 l-4,-16" fill="#E53935"/><circle cx="22" cy="24" r="9" fill="#F4C430" stroke="#F07C1B" stroke-width="2.5"/></g><text x="56" y="122" font-family="Arial, 'Liberation Sans', 'DejaVu Sans', sans-serif" font-size="15" text-anchor="middle" fill="#2B3A33" font-weight="bold">mândru</text><text x="56" y="139" font-family="Arial, 'Liberation Sans', 'DejaVu Sans', sans-serif" font-size="12" text-anchor="middle" fill="#555" font-style="italic">proud</text><g transform="translate(168,58)"><circle r="38" fill="#B0BEC5" stroke="#2B3A33" stroke-width="2.4"/><circle cx="-12" cy="-8" r="3.5" fill="#2B3A33"/><circle cx="12" cy="-8" r="3.5" fill="#2B3A33"/><path d="M-20,-16 l10,-4 M20,-16 l-10,-4" stroke="#2B3A33" stroke-width="2.4" stroke-linecap="round" stroke-linejoin="round" fill="none"/><path d="M-12,18 q12,-8 24,0" stroke="#2B3A33" stroke-width="2.4" stroke-linecap="round" stroke-linejoin="round" fill="none"/></g><text x="168" y="122" font-family="Arial, 'Liberation Sans', 'DejaVu Sans', sans-serif" font-size="15" text-anchor="middle" fill="#2B3A33" font-weight="bold">dezamăgit</text><text x="168" y="139" font-family="Arial, 'Liberation Sans', 'DejaVu Sans', sans-serif" font-size="12" text-anchor="middle" fill="#555" font-style="italic">disappointed</text><g transform="translate(280,58)"><circle r="38" fill="#FFAB91" stroke="#2B3A33" stroke-width="2.4"/><circle cx="-12" cy="-8" r="6" fill="#fff" stroke="#2B3A33" stroke-width="2"/><circle cx="12" cy="-8" r="6" fill="#fff" stroke="#2B3A33" stroke-width="2"/><circle cx="-12" cy="-8" r="2.5" fill="#2B3A33"/><circle cx="12" cy="-8" r="2.5" fill="#2B3A33"/><path d="M-14,16 l5,-4 l5,4 l5,-4 l5,4 l5,-4" stroke="#2B3A33" stroke-width="2.4" stroke-linecap="round" stroke-linejoin="round" fill="none"/><path d="M28,-30 q6,8 0,12" stroke="#1E88E5" stroke-width="3" fill="none"/></g><text x="280" y="122" font-family="Arial, 'Liberation Sans', 'DejaVu Sans', sans-serif" font-size="15" text-anchor="middle" fill="#2B3A33" font-weight="bold">stresat</text><text x="280" y="139" font-family="Arial, 'Liberation Sans', 'DejaVu Sans', sans-serif" font-size="12" text-anchor="middle" fill="#555" font-style="italic">stressed</text><g transform="translate(392,58)"><circle r="38" fill="#C5E1A5" stroke="#2B3A33" stroke-width="2.4"/><path d="M-18,-8 q6,-5 12,0 M6,-8 q6,-5 12,0" stroke="#2B3A33" stroke-width="2.4" stroke-linecap="round" stroke-linejoin="round" fill="none"/><path d="M-10,12 q10,8 20,0" stroke="#2B3A33" stroke-width="2.4" stroke-linecap="round" stroke-linejoin="round" fill="none"/><path d="M22,6 q14,-2 16,6" stroke="#90CAF9" stroke-width="3" fill="none"/></g><text x="392" y="122" font-family="Arial, 'Liberation Sans', 'DejaVu Sans', sans-serif" font-size="15" text-anchor="middle" fill="#2B3A33" font-weight="bold">ușurat</text><text x="392" y="139" font-family="Arial, 'Liberation Sans', 'DejaVu Sans', sans-serif" font-size="12" text-anchor="middle" fill="#555" font-style="italic">relieved</text><g transform="translate(504,58)"><circle r="38" fill="#F8BBD0" stroke="#2B3A33" stroke-width="2.4"/><circle cx="-8" cy="-8" r="3.5" fill="#2B3A33"/><circle cx="16" cy="-8" r="3.5" fill="#2B3A33"/><path d="M-4,16 h14" stroke="#2B3A33" stroke-width="2.4" stroke-linecap="round" stroke-linejoin="round" fill="none"/><ellipse cx="-20" cy="6" rx="7" ry="4" fill="#E57373" opacity=".7"/><ellipse cx="22" cy="6" rx="7" ry="4" fill="#E57373" opacity=".7"/></g><text x="504" y="122" font-family="Arial, 'Liberation Sans', 'DejaVu Sans', sans-serif" font-size="15" text-anchor="middle" fill="#2B3A33" font-weight="bold">jenat</text><text x="504" y="139" font-family="Arial, 'Liberation Sans', 'DejaVu Sans', sans-serif" font-size="12" text-anchor="middle" fill="#555" font-style="italic">embarrassed</text><g transform="translate(616,58)"><circle r="38" fill="#FFE082" stroke="#2B3A33" stroke-width="2.4"/><circle cx="-12" cy="-8" r="6" fill="#fff" stroke="#2B3A33" stroke-width="2"/><circle cx="12" cy="-8" r="6" fill="#fff" stroke="#2B3A33" stroke-width="2"/><circle cx="-12" cy="-8" r="2.5" fill="#2B3A33"/><circle cx="12" cy="-8" r="2.5" fill="#2B3A33"/><path d="M-14,8 q14,18 28,0z" fill="#fff" stroke="#2B3A33" stroke-width="2.4" stroke-linecap="round" stroke-linejoin="round" /><path d="M-30,-30 l6,6 M30,-30 l-6,6 M0,-44 v8" stroke="#F07C1B" stroke-width="3"/></g><text x="616" y="122" font-family="Arial, 'Liberation Sans', 'DejaVu Sans', sans-serif" font-size="15" text-anchor="middle" fill="#2B3A33" font-weight="bold">entuziasmat</text><text x="616" y="139" font-family="Arial, 'Liberation Sans', 'DejaVu Sans', sans-serif" font-size="12" text-anchor="middle" fill="#555" font-style="italic">excited</text><g transform="translate(728,58)"><circle r="38" fill="#CFD8DC" stroke="#2B3A33" stroke-width="2.4"/><path d="M-18,-8 h12 M6,-8 h12" stroke="#2B3A33" stroke-width="2.4" stroke-linecap="round" stroke-linejoin="round" fill="none"/><circle cx="-12" cy="-6" r="2.5" fill="#2B3A33"/><circle cx="12" cy="-6" r="2.5" fill="#2B3A33"/><path d="M-10,16 h20" stroke="#2B3A33" stroke-width="2.4" stroke-linecap="round" stroke-linejoin="round" fill="none"/><text x="22" y="-24" font-family="Arial" font-size="13" font-weight="bold" fill="#607D8B">z z</text></g><text x="728" y="122" font-family="Arial, 'Liberation Sans', 'DejaVu Sans', sans-serif" font-size="15" text-anchor="middle" fill="#2B3A33" font-weight="bold">plictisit</text><text x="728" y="139" font-family="Arial, 'Liberation Sans', 'DejaVu Sans', sans-serif" font-size="12" text-anchor="middle" fill="#555" font-style="italic">bored</text><g transform="translate(840,58)"><circle r="38" fill="#B2DFDB" stroke="#2B3A33" stroke-width="2.4"/><path d="M-18,-8 q6,-5 12,0 M6,-8 q6,-5 12,0" stroke="#2B3A33" stroke-width="2.4" stroke-linecap="round" stroke-linejoin="round" fill="none"/><path d="M-12,12 q12,10 24,0" stroke="#2B3A33" stroke-width="2.4" stroke-linecap="round" stroke-linejoin="round" fill="none"/><path d="M26,-6 c-6,-10 -18,-2 -8,8 l8,8 l8,-8 c10,-10 -2,-18 -8,-8z" fill="#E53935"/></g><text x="840" y="122" font-family="Arial, 'Liberation Sans', 'DejaVu Sans', sans-serif" font-size="15" text-anchor="middle" fill="#2B3A33" font-weight="bold">recunoscător</text><text x="840" y="139" font-family="Arial, 'Liberation Sans', 'DejaVu Sans', sans-serif" font-size="12" text-anchor="middle" fill="#555" font-style="italic">grateful</text></svg>