<svg xmlns="http://www.w3.org/2000/svg" width="900" height="250" viewBox="0 0 900 250"><rect x="20" y="70" width="860" height="80" fill="#FFEB3B" stroke="#2B3A33" stroke-width="2.5"/><line x1="40" y1="70" x2="40" y2="110" stroke="#2B3A33" stroke-width="2.2"/><text x="40" y="138" font-family="Arial, 'Liberation Sans', 'DejaVu Sans', sans-serif" font-size="20" text-anchor="middle" fill="#C62828" font-weight="bold">120</text><line x1="48" y1="70" x2="48" y2="86" stroke="#2B3A33" stroke-width="1.2"/><line x1="56" y1="70" x2="56" y2="86" stroke="#2B3A33" stroke-width="1.2"/><line x1="64" y1="70" x2="64" y2="86" stroke="#2B3A33" stroke-width="1.2"/><line x1="72" y1="70" x2="72" y2="86" stroke="#2B3A33" stroke-width="1.2"/><line x1="80" y1="70" x2="80" y2="98" stroke="#2B3A33" stroke-width="1.2"/><line x1="88" y1="70" x2="88" y2="86" stroke="#2B3A33" stroke-width="1.2"/><line x1="96" y1="70" x2="96" y2="86" stroke="#2B3A33" stroke-width="1.2"/><line x1="104" y1="70" x2="104" y2="86" stroke="#2B3A33" stroke-width="1.2"/><line x1="112" y1="70" x2="112" y2="86" stroke="#2B3A33" stroke-width="1.2"/><line x1="120" y1="70" x2="120" y2="110" stroke="#2B3A33" stroke-width="2.2"/><text x="120" y="138" font-family="Arial, 'Liberation Sans', 'DejaVu Sans', sans-serif" font-size="20" text-anchor="middle" fill="#2B3A33" font-weight="bold">121</text><line x1="128" y1="70" x2="128" y2="86" stroke="#2B3A33" stroke-width="1.2"/><line x1="136" y1="70" x2="136" y2="86" stroke="#2B3A33" stroke-width="1.2"/><line x1="144" y1="70" x2="144" y2="86" stroke="#2B3A33" stroke-width="1.2"/><line x1="152" y1="70" x2="152" y2="86" stroke="#2B3A33" stroke-width="1.2"/><line x1="160" y1="70" x2="160" y2="98" stroke="#2B3A33" stroke-width="1.2"/><line x1="168" y1="70" x2="168" y2="86" stroke="#2B3A33" stroke-width="1.2"/><line x1="176" y1="70" x2="176" y2="86" stroke="#2B3A33" stroke-width="1.2"/><line x1="184" y1="70" x2="184" y2="86" stroke="#2B3A33" stroke-width="1.2"/><line x1="192" y1="70" x2="192" y2="86" stroke="#2B3A33" stroke-width="1.2"/><line x1="200" y1="70" x2="200" y2="110" stroke="#2B3A33" stroke-width="2.2"/><text x="200" y="138" font-family="Arial, 'Liberation Sans', 'DejaVu Sans', sans-serif" font-size="20" text-anchor="middle" fill="#2B3A33" font-weight="bold">122</text><line x1="208" y1="70" x2="208" y2="86" stroke="#2B3A33" stroke-width="1.2"/><line x1="216" y1="70" x2="216" y2="86" stroke="#2B3A33" stroke-width="1.2"/><line x1="224" y1="70" x2="224" y2="86" stroke="#2B3A33" stroke-width="1.2"/><line x1="232" y1="70" x2="232" y2="86" stroke="#2B3A33" stroke-width="1.2"/><line x1="240" y1="70" x2="240" y2="98" stroke="#2B3A33" stroke-width="1.2"/><line x1="248" y1="70" x2="248" y2="86" stroke="#2B3A33" stroke-width="1.2"/><line x1="256" y1="70" x2="256" y2="86" stroke="#2B3A33" stroke-width="1.2"/><line x1="264" y1="70" x2="264" y2="86" stroke="#2B3A33" stroke-width="1.2"/><line x1="272" y1="70" x2="272" y2="86" stroke="#2B3A33" stroke-width="1.2"/><line x1="280" y1="70" x2="280" y2="110" stroke="#2B3A33" stroke-width="2.2"/><text x="280" y="138" font-family="Arial, 'Liberation Sans', 'DejaVu Sans', sans-serif" font-size="20" text-anchor="middle" fill="#2B3A33" font-weight="bold">123</text><line x1="288" y1="70" x2="288" y2="86" stroke="#2B3A33" stroke-width="1.2"/><line x1="296" y1="70" x2="296" y2="86" stroke="#2B3A33" stroke-width="1.2"/><line x1="304" y1="70" x2="304" y2="86" stroke="#2B3A33" stroke-width="1.2"/><line x1="312" y1="70" x2="312" y2="86" stroke="#2B3A33" stroke-width="1.2"/><line x1="320" y1="70" x2="320" y2="98" stroke="#2B3A33" stroke-width="1.2"/><line x1="328" y1="70" x2="328" y2="86" stroke="#2B3A33" stroke-width="1.2"/><line x1="336" y1="70" x2="336" y2="86" stroke="#2B3A33" stroke-width="1.2"/><line x1="344" y1="70" x2="344" y2="86" stroke="#2B3A33" stroke-width="1.2"/><line x1="352" y1="70" x2="352" y2="86" stroke="#2B3A33" stroke-width="1.2"/><line x1="360" y1="70" x2="360" y2="110" stroke="#2B3A33" stroke-width="2.2"/><text x="360" y="138" font-family="Arial, 'Liberation Sans', 'DejaVu Sans', sans-serif" font-size="20" text-anchor="middle" fill="#2B3A33" font-weight="bold">124</text><line x1="368" y1="70" x2="368" y2="86" stroke="#2B3A33" stroke-width="1.2"/><line x1="376" y1="70" x2="376" y2="86" stroke="#2B3A33" stroke-width="1.2"/><line x1="384" y1="70" x2="384" y2="86" stroke="#2B3A33" stroke-width="1.2"/><line x1="392" y1="70" x2="392" y2="86" stroke="#2B3A33" stroke-width="1.2"/><line x1="400" y1="70" x2="400" y2="98" stroke="#2B3A33" stroke-width="1.2"/><line x1="408" y1="70" x2="408" y2="86" stroke="#2B3A33" stroke-width="1.2"/><line x1="416" y1="70" x2="416" y2="86" stroke="#2B3A33" stroke-width="1.2"/><line x1="424" y1="70" x2="424" y2="86" stroke="#2B3A33" stroke-width="1.2"/><line x1="432" y1="70" x2="432" y2="86" stroke="#2B3A33" stroke-width="1.2"/><line x1="440" y1="70" x2="440" y2="110" stroke="#2B3A33" stroke-width="2.2"/><text x="440" y="138" font-family="Arial, 'Liberation Sans', 'DejaVu Sans', sans-serif" font-size="20" text-anchor="middle" fill="#2B3A33" font-weight="bold">125</text><line x1="448" y1="70" x2="448" y2="86" stroke="#2B3A33" stroke-width="1.2"/><line x1="456" y1="70" x2="456" y2="86" stroke="#2B3A33" stroke-width="1.2"/><line x1="464" y1="70" x2="464" y2="86" stroke="#2B3A33" stroke-width="1.2"/><line x1="472" y1="70" x2="472" y2="86" stroke="#2B3A33" stroke-width="1.2"/><line x1="480" y1="70" x2="480" y2="98" stroke="#2B3A33" stroke-width="1.2"/><line x1="488" y1="70" x2="488" y2="86" stroke="#2B3A33" stroke-width="1.2"/><line x1="496" y1="70" x2="496" y2="86" stroke="#2B3A33" stroke-width="1.2"/><line x1="504" y1="70" x2="504" y2="86" stroke="#2B3A33" stroke-width="1.2"/><line x1="512" y1="70" x2="512" y2="86" stroke="#2B3A33" stroke-width="1.2"/><line x1="520" y1="70" x2="520" y2="110" stroke="#2B3A33" stroke-width="2.2"/><text x="520" y="138" font-family="Arial, 'Liberation Sans', 'DejaVu Sans', sans-serif" font-size="20" text-anchor="middle" fill="#2B3A33" font-weight="bold">126</text><line x1="528" y1="70" x2="528" y2="86" stroke="#2B3A33" stroke-width="1.2"/><line x1="536" y1="70" x2="536" y2="86" stroke="#2B3A33" stroke-width="1.2"/><line x1="544" y1="70" x2="544" y2="86" stroke="#2B3A33" stroke-width="1.2"/><line x1="552" y1="70" x2="552" y2="86" stroke="#2B3A33" stroke-width="1.2"/><line x1="560" y1="70" x2="560" y2="98" stroke="#2B3A33" stroke-width="1.2"/><line x1="568" y1="70" x2="568" y2="86" stroke="#2B3A33" stroke-width="1.2"/><line x1="576" y1="70" x2="576" y2="86" stroke="#2B3A33" stroke-width="1.2"/><line x1="584" y1="70" x2="584" y2="86" stroke="#2B3A33" stroke-width="1.2"/><line x1="592" y1="70" x2="592" y2="86" stroke="#2B3A33" stroke-width="1.2"/><line x1="600" y1="70" x2="600" y2="110" stroke="#2B3A33" stroke-width="2.2"/><text x="600" y="138" font-family="Arial, 'Liberation Sans', 'DejaVu Sans', sans-serif" font-size="20" text-anchor="middle" fill="#2B3A33" font-weight="bold">127</text><line x1="608" y1="70" x2="608" y2="86" stroke="#2B3A33" stroke-width="1.2"/><line x1="616" y1="70" x2="616" y2="86" stroke="#2B3A33" stroke-width="1.2"/><line x1="624" y1="70" x2="624" y2="86" stroke="#2B3A33" stroke-width="1.2"/><line x1="632" y1="70" x2="632" y2="86" stroke="#2B3A33" stroke-width="1.2"/><line x1="640" y1="70" x2="640" y2="98" stroke="#2B3A33" stroke-width="1.2"/><line x1="648" y1="70" x2="648" y2="86" stroke="#2B3A33" stroke-width="1.2"/><line x1="656" y1="70" x2="656" y2="86" stroke="#2B3A33" stroke-width="1.2"/><line x1="664" y1="70" x2="664" y2="86" stroke="#2B3A33" stroke-width="1.2"/><line x1="672" y1="70" x2="672" y2="86" stroke="#2B3A33" stroke-width="1.2"/><line x1="680" y1="70" x2="680" y2="110" stroke="#2B3A33" stroke-width="2.2"/><text x="680" y="138" font-family="Arial, 'Liberation Sans', 'DejaVu Sans', sans-serif" font-size="20" text-anchor="middle" fill="#2B3A33" font-weight="bold">128</text><line x1="688" y1="70" x2="688" y2="86" stroke="#2B3A33" stroke-width="1.2"/><line x1="696" y1="70" x2="696" y2="86" stroke="#2B3A33" stroke-width="1.2"/><line x1="704" y1="70" x2="704" y2="86" stroke="#2B3A33" stroke-width="1.2"/><line x1="712" y1="70" x2="712" y2="86" stroke="#2B3A33" stroke-width="1.2"/><line x1="720" y1="70" x2="720" y2="98" stroke="#2B3A33" stroke-width="1.2"/><line x1="728" y1="70" x2="728" y2="86" stroke="#2B3A33" stroke-width="1.2"/><line x1="736" y1="70" x2="736" y2="86" stroke="#2B3A33" stroke-width="1.2"/><line x1="744" y1="70" x2="744" y2="86" stroke="#2B3A33" stroke-width="1.2"/><line x1="752" y1="70" x2="752" y2="86" stroke="#2B3A33" stroke-width="1.2"/><line x1="760" y1="70" x2="760" y2="110" stroke="#2B3A33" stroke-width="2.2"/><text x="760" y="138" font-family="Arial, 'Liberation Sans', 'DejaVu Sans', sans-serif" font-size="20" text-anchor="middle" fill="#2B3A33" font-weight="bold">129</text><line x1="768" y1="70" x2="768" y2="86" stroke="#2B3A33" stroke-width="1.2"/><line x1="776" y1="70" x2="776" y2="86" stroke="#2B3A33" stroke-width="1.2"/><line x1="784" y1="70" x2="784" y2="86" stroke="#2B3A33" stroke-width="1.2"/><line x1="792" y1="70" x2="792" y2="86" stroke="#2B3A33" stroke-width="1.2"/><line x1="800" y1="70" x2="800" y2="98" stroke="#2B3A33" stroke-width="1.2"/><line x1="808" y1="70" x2="808" y2="86" stroke="#2B3A33" stroke-width="1.2"/><line x1="816" y1="70" x2="816" y2="86" stroke="#2B3A33" stroke-width="1.2"/><line x1="824" y1="70" x2="824" y2="86" stroke="#2B3A33" stroke-width="1.2"/><line x1="832" y1="70" x2="832" y2="86" stroke="#2B3A33" stroke-width="1.2"/><line x1="840" y1="70" x2="840" y2="110" stroke="#2B3A33" stroke-width="2.2"/><text x="840" y="138" font-family="Arial, 'Liberation Sans', 'DejaVu Sans', sans-serif" font-size="20" text-anchor="middle" fill="#C62828" font-weight="bold">130</text><text x="40" y="64" font-family="Arial, 'Liberation Sans', 'DejaVu Sans', sans-serif" font-size="15" text-anchor="middle" fill="#C62828" font-weight="bold">1 m 20 cm</text><text x="840" y="64" font-family="Arial, 'Liberation Sans', 'DejaVu Sans', sans-serif" font-size="15" text-anchor="middle" fill="#C62828" font-weight="bold">1 m 30 cm</text><path d="M240,172 v-20 m-7,8 l7,-8 l7,8" fill="none" stroke="#C62828" stroke-width="3"/><text x="240" y="196" font-family="Arial, 'Liberation Sans', 'DejaVu Sans', sans-serif" font-size="16" text-anchor="middle" fill="#C62828" font-weight="bold">1,225 m</text><text x="240" y="216" font-family="Arial, 'Liberation Sans', 'DejaVu Sans', sans-serif" font-size="13" text-anchor="middle" fill="#555" font-style="italic">122,5 cm = 1 225 mm</text><path d="M440,172 v-20 m-7,8 l7,-8 l7,8" fill="none" stroke="#C62828" stroke-width="3"/><text x="440" y="196" font-family="Arial, 'Liberation Sans', 'DejaVu Sans', sans-serif" font-size="16" text-anchor="middle" fill="#C62828" font-weight="bold">1,25 m</text><text x="440" y="216" font-family="Arial, 'Liberation Sans', 'DejaVu Sans', sans-serif" font-size="13" text-anchor="middle" fill="#555" font-style="italic">125 cm</text><path d="M712,172 v-20 m-7,8 l7,-8 l7,8" fill="none" stroke="#C62828" stroke-width="3"/><text x="712" y="196" font-family="Arial, 'Liberation Sans', 'DejaVu Sans', sans-serif" font-size="16" text-anchor="middle" fill="#C62828" font-weight="bold">1,284 m</text><text x="712" y="216" font-family="Arial, 'Liberation Sans', 'DejaVu Sans', sans-serif" font-size="13" text-anchor="middle" fill="#555" font-style="italic">128,4 cm = 1 284 mm</text><text x="450" y="30" font-family="Arial, 'Liberation Sans', 'DejaVu Sans', sans-serif" font-size="15" text-anchor="middle" fill="#555" font-style="italic">The big numbers are centimetres · every small line = 1 millimetre · the middle line = 5 mm</text></svg>