<svg xmlns="http://www.w3.org/2000/svg" width="900" height="560" viewBox="0 0 900 560"><g transform="translate(110,0)"><g stroke="#2B3A33" stroke-width="2.5" stroke-linejoin="round"><circle cx="300" cy="120" r="44" fill="#E8B98A"/><path d="M258,100 q2,-40 42,-40 q40,0 42,40z" fill="#37474F"/><path d="M336,96 h34 q4,6 -4,10 h-30z" fill="#37474F"/><path d="M232,176 h136 q26,0 30,26 l10,150 h-28 l-8,-120 v126 h-144 v-126 l-8,120 h-28 l10,-150 q4,-26 30,-26z" fill="#1E88E5"/><path d="M244,250 h112 M244,290 h112" stroke="#E0E0E0" stroke-width="10"/><rect x="198" y="350" width="30" height="30" rx="8" fill="#FDD835"/><rect x="372" y="350" width="30" height="30" rx="8" fill="#FDD835"/><path d="M252,358 h96 l6,160 h-44 l-6,-120 l-6,120 h-44z" fill="#37474F"/><path d="M250,518 h52 v26 h-62 z" fill="#5D4037"/><path d="M298,518 h52 l10,26 h-62z" fill="#5D4037"/><rect x="386" y="330" width="26" height="40" rx="4" fill="#37474F"/></g><circle cx="285" cy="118" r="3.5" fill="#2B3A33"/><circle cx="315" cy="118" r="3.5" fill="#2B3A33"/><path d="M288,140 q12,8 24,0" fill="none" stroke="#2B3A33" stroke-width="2.5"/><circle cx="300" cy="70" r="4" fill="#2E7D55"/><polyline points="300,70 180,50 150,50" fill="none" stroke="#2E7D55" stroke-width="1.5"/><text x="144" y="48" font-family="Arial, 'Liberation Sans', 'DejaVu Sans', sans-serif" font-size="16" text-anchor="end" fill="#2B3A33" font-weight="bold">șapca (sau casca, în depozit)</text><text x="144" y="65" font-family="Arial, 'Liberation Sans', 'DejaVu Sans', sans-serif" font-size="12.5" text-anchor="end" fill="#555" font-style="italic">cap (helmet in some warehouses)</text><circle cx="256" cy="270" r="4" fill="#2E7D55"/><polyline points="256,270 180,240 150,240" fill="none" stroke="#2E7D55" stroke-width="1.5"/><text x="144" y="238" font-family="Arial, 'Liberation Sans', 'DejaVu Sans', sans-serif" font-size="16" text-anchor="end" fill="#2B3A33" font-weight="bold">vesta reflectorizantă</text><text x="144" y="255" font-family="Arial, 'Liberation Sans', 'DejaVu Sans', sans-serif" font-size="12.5" text-anchor="end" fill="#555" font-style="italic">hi-vis vest</text><circle cx="213" cy="365" r="4" fill="#2E7D55"/><polyline points="213,365 180,360 150,360" fill="none" stroke="#2E7D55" stroke-width="1.5"/><text x="144" y="358" font-family="Arial, 'Liberation Sans', 'DejaVu Sans', sans-serif" font-size="16" text-anchor="end" fill="#2B3A33" font-weight="bold">mănușile de lucru</text><text x="144" y="375" font-family="Arial, 'Liberation Sans', 'DejaVu Sans', sans-serif" font-size="12.5" text-anchor="end" fill="#555" font-style="italic">work gloves</text><circle cx="398" cy="346" r="4" fill="#2E7D55"/><polyline points="398,346 430,330 460,330" fill="none" stroke="#2E7D55" stroke-width="1.5"/><text x="466" y="328" font-family="Arial, 'Liberation Sans', 'DejaVu Sans', sans-serif" font-size="16" text-anchor="start" fill="#2B3A33" font-weight="bold">scannerul · terminalul</text><text x="466" y="345" font-family="Arial, 'Liberation Sans', 'DejaVu Sans', sans-serif" font-size="12.5" text-anchor="start" fill="#555" font-style="italic">handheld scanner</text><circle cx="320" cy="440" r="4" fill="#2E7D55"/><polyline points="320,440 430,430 460,430" fill="none" stroke="#2E7D55" stroke-width="1.5"/><text x="466" y="428" font-family="Arial, 'Liberation Sans', 'DejaVu Sans', sans-serif" font-size="16" text-anchor="start" fill="#2B3A33" font-weight="bold">pantalonii de lucru</text><text x="466" y="445" font-family="Arial, 'Liberation Sans', 'DejaVu Sans', sans-serif" font-size="12.5" text-anchor="start" fill="#555" font-style="italic">work trousers</text><circle cx="330" cy="532" r="4" fill="#2E7D55"/><polyline points="330,532 430,520 460,520" fill="none" stroke="#2E7D55" stroke-width="1.5"/><text x="466" y="518" font-family="Arial, 'Liberation Sans', 'DejaVu Sans', sans-serif" font-size="16" text-anchor="start" fill="#2B3A33" font-weight="bold">bocancii cu bombeu metalic</text><text x="466" y="535" font-family="Arial, 'Liberation Sans', 'DejaVu Sans', sans-serif" font-size="12.5" text-anchor="start" fill="#555" font-style="italic">safety boots</text></g></svg>