<svg xmlns="http://www.w3.org/2000/svg" width="900" height="226" viewBox="0 0 900 226"><g transform="translate(200,0)"><circle cx="60" cy="40" r="14" fill="#E8B98A" stroke="#2B3A33" stroke-width="2.5" stroke-linejoin="round"/><path d="M60,54 v50 l-18,20 v40 M60,104 l18,20 v40" fill="none" stroke="#2B3A33" stroke-width="7" stroke-linecap="round"/><path d="M60,70 l24,40" stroke="#2B3A33" stroke-width="6"/><rect x="72" y="110" width="40" height="34" fill="#D7A86E" stroke="#2B3A33" stroke-width="2.5" stroke-linejoin="round"/><circle cx="150" cy="40" r="20" fill="#2E7D32"/><text x="150" y="48" font-family="Arial, 'Liberation Sans', 'DejaVu Sans', sans-serif" font-size="22" text-anchor="middle" fill="#fff" font-weight="bold">✓</text><text x="80" y="196" font-family="Arial, 'Liberation Sans', 'DejaVu Sans', sans-serif" font-size="15" text-anchor="middle" fill="#2E7D32" font-weight="bold">CORECT — cu genunchii îndoiți, spatele drept</text><text x="80" y="214" font-family="Arial, 'Liberation Sans', 'DejaVu Sans', sans-serif" font-size="12.5" text-anchor="middle" fill="#555" font-style="italic">bend your knees, back straight, load close</text></g><g transform="translate(580,0)"><circle cx="100" cy="90" r="14" fill="#E8B98A" stroke="#2B3A33" stroke-width="2.5" stroke-linejoin="round"/><path d="M88,98 L40,90 v70 M40,90 l-4,74" fill="none" stroke="#2B3A33" stroke-width="7" stroke-linecap="round"/><path d="M80,100 l14,40" stroke="#2B3A33" stroke-width="6"/><rect x="84" y="134" width="40" height="30" fill="#D7A86E" stroke="#2B3A33" stroke-width="2.5" stroke-linejoin="round"/><circle cx="150" cy="40" r="20" fill="#D32F2F"/><text x="150" y="48" font-family="Arial, 'Liberation Sans', 'DejaVu Sans', sans-serif" font-size="22" text-anchor="middle" fill="#fff" font-weight="bold">✗</text><text x="80" y="196" font-family="Arial, 'Liberation Sans', 'DejaVu Sans', sans-serif" font-size="15" text-anchor="middle" fill="#D32F2F" font-weight="bold">GREȘIT — cu spatele îndoit</text><text x="80" y="214" font-family="Arial, 'Liberation Sans', 'DejaVu Sans', sans-serif" font-size="12.5" text-anchor="middle" fill="#555" font-style="italic">never lift with a bent back</text></g></svg>